<svg xmlns="http://www.w3.org/2000/svg" xmlns:xlink="http://www.w3.org/1999/xlink" version="1.1" x="0px" y="0px" viewBox="0 0 106 100" style="enable-background:new 0 0 100 100;" xml:space="preserve"><path d="M34.2,46.4c-0.6-0.7-0.7-1.4-0.5-2c0,0,0,0,0,0c-2.2-0.1-3.9,1.9-3.5,4.1c0.3,1.3,1.3,2.3,2.6,2.6c2.2,0.5,4.1-1.2,4.1-3.3  c0-0.6-0.2-1.2-0.4-1.7C36.1,46.8,35.2,47,34.2,46.4z"/><path d="M71.1,46.4c-0.6-0.7-0.7-1.4-0.5-2c0,0,0,0,0,0c-2.2-0.1-3.9,1.9-3.5,4.1c0.3,1.3,1.3,2.3,2.6,2.6c2.2,0.5,4.1-1.2,4.1-3.3  c0-0.6-0.2-1.2-0.4-1.7C72.9,46.8,72,47,71.1,46.4z"/><path d="M79.9,30.9c0.3-0.4,0.6-0.8,0.7-1.4c1.3-4.6,1.6-14.3-2.8-15c-4-0.7-7.1,3-8.6,6.5c-5-3.1-10.7-5-16.7-5  c-6,0-11.7,1.9-16.7,5c-1.6-3.5-4.6-7.2-8.6-6.5c-4.4,0.7-4.1,10.4-2.8,15c0.2,0.5,0.4,1,0.7,1.4C11,48,16,67,25.6,71.8  c0.8,5,0.9,8.2,1,8.2c0.3,2.4,0.7,5,2.4,5h7.4c2.1,0,3-2.4,3.5-5.3c0.1-0.4,0.2-0.8,0.2-1.3c3.9,0.9,8,1.3,12.4,1.3  c4.5,0,8.7-0.4,12.7-1.3c0.1,0.4,0.2,0.9,0.2,1.3c0.5,2.9,1.4,5.3,3.5,5.3h7.4c1.7,0,2.1-2.5,2.4-5c0.1,0,0.2-3.3,1-8.4  c5.2-4.3,8.3-10.3,8.3-18.1C88,45.7,84.9,37.6,79.9,30.9z M32.6,54c-2.6-0.4-4.7-2.5-5.1-5.1c-0.7-4.3,3-8,7.2-7.2  c2.6,0.4,4.7,2.5,5.1,5.1C40.5,51,36.9,54.7,32.6,54z M52.5,66.7c-6.5,0-11.8-3.5-11.8-7.9c0-4.3,5.3-7.9,11.8-7.9  s11.8,3.5,11.8,7.9C64.2,63.2,59,66.7,52.5,66.7z M69.4,54c-2.6-0.4-4.7-2.5-5.1-5.1c-0.7-4.3,3-8,7.2-7.2c2.6,0.4,4.7,2.5,5.1,5.1  C77.4,51,73.7,54.7,69.4,54z"/><ellipse cx="48.2" cy="59.2" rx="2.1" ry="3.4"/><ellipse cx="56.9" cy="59.2" rx="2.1" ry="3.4"/></svg>
